<?xml version="1.0" standalone="no"?>
<!DOCTYPE svg PUBLIC "-//W3C//DTD SVG 1.1//EN"
"http://www.w3.org/Graphics/SVG/1.1/DTD/svg11.dtd">

<svg width="693" height="550" view_box="0 0 693 550"
xmlns="http://www.w3.org/2000/svg"
xmlns:link="http://www.w3.org/1999/xlink">\n\n<desc>Généré par Mocodo 2.3.7 le Fri, 06 Nov 2020 00:29:09</desc>

<rect id="frame" x="0" y="0" width="693" height="550" fill="#f7f7f7" stroke="none" stroke-width="0"/>

<!-- Association compose -->
<line x1="473" y1="68" x2="350" y2="68" stroke="#8073ac" stroke-width="2"/>
<text x="395" y="85.0" fill="#b35806" font-family="Verdana" font-size="12">1,1</text>
<line x1="350" y1="237" x2="350" y2="68" stroke="#8073ac" stroke-width="2"/>
<text x="355.0" y="204" fill="#b35806" font-family="Verdana" font-size="12">0,N</text>
<line x1="234" y1="68" x2="350" y2="68" stroke="#8073ac" stroke-width="2"/>
<text x="288" y="85.0" fill="#b35806" font-family="Verdana" font-size="12">0,N</text>
<g id="association-compose">
	<path d="M 370 43 a 14 14 90 0 1 14 14 V 68 h -68 V 57 a 14 14 90 0 1 14 -14" fill="#b2abd2" stroke="#b2abd2" stroke-width="0"/>
	<path d="M 384 68.0 v 11 a 14 14 90 0 1 -14 14 H 330 a 14 14 90 0 1 -14 -14 V 68.0 H 68" fill="#d8daeb" stroke="#d8daeb" stroke-width="0"/>
	<rect x="316" y="43" width="68" height="50" fill="none" rx="14" stroke="#8073ac" stroke-width="2"/>
	<line x1="316" y1="68" x2="384" y2="68" stroke="#8073ac" stroke-width="1"/>
	<text x="323" y="60.7" fill="#000000" font-family="Verdana" font-size="12">compose</text>
</g>

<!-- Association quand -->
<line x1="350" y1="490" x2="234" y2="389" stroke="#8073ac" stroke-width="2"/>
<text x="284" y="465.791005867" fill="#b35806" font-family="Verdana" font-size="12">1,1</text>
<line x1="80" y1="389" x2="234" y2="389" stroke="#8073ac" stroke-width="2"/>
<text x="144" y="406.0" fill="#b35806" font-family="Verdana" font-size="12">0,N</text>
<g id="association-quand">
	<path d="M 246 364 a 14 14 90 0 1 14 14 V 389 h -52 V 378 a 14 14 90 0 1 14 -14" fill="#b2abd2" stroke="#b2abd2" stroke-width="0"/>
	<path d="M 260 389.0 v 11 a 14 14 90 0 1 -14 14 H 222 a 14 14 90 0 1 -14 -14 V 389.0 H 52" fill="#d8daeb" stroke="#d8daeb" stroke-width="0"/>
	<rect x="208" y="364" width="52" height="50" fill="none" rx="14" stroke="#8073ac" stroke-width="2"/>
	<line x1="208" y1="389" x2="260" y2="389" stroke="#8073ac" stroke-width="1"/>
	<text x="215" y="381.7" fill="#000000" font-family="Verdana" font-size="12">quand</text>
</g>

<!-- Association possede -->
<line x1="350" y1="237" x2="350" y2="389" stroke="#8073ac" stroke-width="2"/>
<text x="355.0" y="279" fill="#b35806" font-family="Verdana" font-size="12">0,N</text>
<line x1="350" y1="490" x2="350" y2="389" stroke="#8073ac" stroke-width="2"/>
<text x="355.0" y="431" fill="#b35806" font-family="Verdana" font-size="12">1,1</text>
<g id="association-possede">
	<path d="M 376 364 a 14 14 90 0 1 14 14 V 389 h -80 V 378 a 14 14 90 0 1 14 -14" fill="#b2abd2" stroke="#b2abd2" stroke-width="0"/>
	<path d="M 390 389.0 v 11 a 14 14 90 0 1 -14 14 H 324 a 14 14 90 0 1 -14 -14 V 389.0 H 80" fill="#d8daeb" stroke="#d8daeb" stroke-width="0"/>
	<rect x="310" y="364" width="80" height="50" fill="none" rx="14" stroke="#8073ac" stroke-width="2"/>
	<line x1="310" y1="389" x2="390" y2="389" stroke="#8073ac" stroke-width="1"/>
	<text x="325" y="381.7" fill="#000000" font-family="Verdana" font-size="12">possede</text>
	<text x="317" y="406.8" fill="#000000" font-family="Verdana" font-size="12">recurrence</text>
</g>

<!-- Association permet -->
<line x1="350" y1="490" x2="234" y2="490" stroke="#8073ac" stroke-width="2"/>
<text x="284" y="507.0" fill="#b35806" font-family="Verdana" font-size="12">1,1</text>
<line x1="80" y1="490" x2="234" y2="490" stroke="#8073ac" stroke-width="2"/>
<text x="144" y="507.0" fill="#b35806" font-family="Verdana" font-size="12">0,N</text>
<g id="association-permet">
	<path d="M 249 465 a 14 14 90 0 1 14 14 V 490 h -58 V 479 a 14 14 90 0 1 14 -14" fill="#b2abd2" stroke="#b2abd2" stroke-width="0"/>
	<path d="M 263 490.0 v 11 a 14 14 90 0 1 -14 14 H 219 a 14 14 90 0 1 -14 -14 V 490.0 H 58" fill="#d8daeb" stroke="#d8daeb" stroke-width="0"/>
	<rect x="205" y="465" width="58" height="50" fill="none" rx="14" stroke="#8073ac" stroke-width="2"/>
	<line x1="205" y1="490" x2="263" y2="490" stroke="#8073ac" stroke-width="1"/>
	<text x="212" y="482.7" fill="#000000" font-family="Verdana" font-size="12">permet</text>
</g>

<!-- Association habite à -->
<line x1="350" y1="237" x2="473" y2="237" stroke="#8073ac" stroke-width="2"/>
<text x="388" y="254.0" fill="#b35806" font-family="Verdana" font-size="12">0,1</text>
<line x1="614" y1="237" x2="473" y2="237" stroke="#8073ac" stroke-width="2"/>
<text x="518" y="254.0" fill="#b35806" font-family="Verdana" font-size="12">1,1</text>
<g id="association-habite à">
	<path d="M 491 212 a 14 14 90 0 1 14 14 V 237 h -64 V 226 a 14 14 90 0 1 14 -14" fill="#b2abd2" stroke="#b2abd2" stroke-width="0"/>
	<path d="M 505 237.0 v 11 a 14 14 90 0 1 -14 14 H 455 a 14 14 90 0 1 -14 -14 V 237.0 H 64" fill="#d8daeb" stroke="#d8daeb" stroke-width="0"/>
	<rect x="441" y="212" width="64" height="50" fill="none" rx="14" stroke="#8073ac" stroke-width="2"/>
	<line x1="441" y1="237" x2="505" y2="237" stroke="#8073ac" stroke-width="1"/>
	<text x="448" y="229.7" fill="#000000" font-family="Verdana" font-size="12">habite à</text>
</g>

<!-- Association visite epicerie -->
<line x1="350" y1="490" x2="473" y2="490" stroke="#8073ac" stroke-width="2"/>
<text x="395" y="507.0" fill="#b35806" font-family="Verdana" font-size="12">0,N</text>
<line x1="614" y1="490" x2="473" y2="490" stroke="#8073ac" stroke-width="2"/>
<text x="558" y="507.0" fill="#b35806" font-family="Verdana" font-size="12">1,N</text>
<g id="association-visite epicerie">
	<path d="M 508 465 a 14 14 90 0 1 14 14 V 490 h -98 V 479 a 14 14 90 0 1 14 -14" fill="#b2abd2" stroke="#b2abd2" stroke-width="0"/>
	<path d="M 522 490.0 v 11 a 14 14 90 0 1 -14 14 H 438 a 14 14 90 0 1 -14 -14 V 490.0 H 98" fill="#d8daeb" stroke="#d8daeb" stroke-width="0"/>
	<rect x="424" y="465" width="98" height="50" fill="none" rx="14" stroke="#8073ac" stroke-width="2"/>
	<line x1="424" y1="490" x2="522" y2="490" stroke="#8073ac" stroke-width="1"/>
	<text x="431" y="482.7" fill="#000000" font-family="Verdana" font-size="12">visite epicerie</text>
	<text x="431" y="507.8" fill="#000000" font-family="Verdana" font-size="12">presence</text>
</g>

<!-- Association a quelle heure -->
<line x1="350" y1="490" x2="473" y2="389" stroke="#8073ac" stroke-width="2"/>
<text x="395" y="468.060902127" fill="#b35806" font-family="Verdana" font-size="12">1,1</text>
<line x1="614" y1="389" x2="473" y2="389" stroke="#8073ac" stroke-width="2"/>
<text x="529" y="406.0" fill="#b35806" font-family="Verdana" font-size="12">0,N</text>
<g id="association-a quelle heure">
	<path d="M 510 364 a 14 14 90 0 1 14 14 V 389 h -102 V 378 a 14 14 90 0 1 14 -14" fill="#b2abd2" stroke="#b2abd2" stroke-width="0"/>
	<path d="M 524 389.0 v 11 a 14 14 90 0 1 -14 14 H 436 a 14 14 90 0 1 -14 -14 V 389.0 H 102" fill="#d8daeb" stroke="#d8daeb" stroke-width="0"/>
	<rect x="422" y="364" width="102" height="50" fill="none" rx="14" stroke="#8073ac" stroke-width="2"/>
	<line x1="422" y1="389" x2="524" y2="389" stroke="#8073ac" stroke-width="1"/>
	<text x="429" y="381.7" fill="#000000" font-family="Verdana" font-size="12">a quelle heure</text>
</g>

<!-- Association peut être joint -->
<line x1="350" y1="237" x2="234" y2="237" stroke="#8073ac" stroke-width="2"/>
<text x="290" y="254.0" fill="#b35806" font-family="Verdana" font-size="12">1,N</text>
<line x1="80" y1="237" x2="234" y2="237" stroke="#8073ac" stroke-width="2"/>
<text x="156" y="254.0" fill="#b35806" font-family="Verdana" font-size="12">1,1</text>
<g id="association-peut être joint">
	<path d="M 271 212 a 14 14 90 0 1 14 14 V 237 h -102 V 226 a 14 14 90 0 1 14 -14" fill="#b2abd2" stroke="#b2abd2" stroke-width="0"/>
	<path d="M 285 237.0 v 11 a 14 14 90 0 1 -14 14 H 197 a 14 14 90 0 1 -14 -14 V 237.0 H 102" fill="#d8daeb" stroke="#d8daeb" stroke-width="0"/>
	<rect x="183" y="212" width="102" height="50" fill="none" rx="14" stroke="#8073ac" stroke-width="2"/>
	<line x1="183" y1="237" x2="285" y2="237" stroke="#8073ac" stroke-width="1"/>
	<text x="190" y="229.7" fill="#000000" font-family="Verdana" font-size="12">peut être joint</text>
</g>

<!-- Entity Type_Transaction -->
<g id="entity-Type_Transaction">
	<g id="frame-Type_Transaction">
		<rect x="21" y="456" width="118" height="25" fill="#fdb863" stroke="#fdb863" stroke-width="0"/>
		<rect x="21" y="481.0" width="118" height="43" fill="#fee0b6" stroke="#fee0b6" stroke-width="0"/>
		<rect x="21" y="456" width="118" height="68" fill="none" stroke="#e08214" stroke-width="2"/>
		<line x1="21" y1="481" x2="139" y2="481" stroke="#e08214" stroke-width="1"/>
	</g>
	<text x="26" y="473.7" fill="#000000" font-family="Verdana" font-size="12">Type_Transaction</text>
	<text x="26" y="498.8" fill="#000000" font-family="Verdana" font-size="12">idTransaction</text>
	<line x1="26" y1="501" x2="108" y2="501" stroke="#000000" stroke-width="1"/>
	<text x="26" y="515.8" fill="#000000" font-family="Verdana" font-size="12">type</text>
</g>

<!-- Entity Jour_Permanence -->
<g id="entity-Jour_Permanence">
	<g id="frame-Jour_Permanence">
		<rect x="21" y="355" width="118" height="25" fill="#fdb863" stroke="#fdb863" stroke-width="0"/>
		<rect x="21" y="380.0" width="118" height="43" fill="#fee0b6" stroke="#fee0b6" stroke-width="0"/>
		<rect x="21" y="355" width="118" height="68" fill="none" stroke="#e08214" stroke-width="2"/>
		<line x1="21" y1="380" x2="139" y2="380" stroke="#e08214" stroke-width="1"/>
	</g>
	<text x="26" y="372.7" fill="#000000" font-family="Verdana" font-size="12">Jour_Permanence</text>
	<text x="26" y="397.8" fill="#000000" font-family="Verdana" font-size="12">idPermanence</text>
	<line x1="26" y1="400" x2="112" y2="400" stroke="#000000" stroke-width="1"/>
	<text x="26" y="414.8" fill="#000000" font-family="Verdana" font-size="12">nom</text>
</g>

<!-- Entity Personne -->
<g id="entity-Personne">
	<g id="frame-Personne">
		<rect x="421" y="9" width="104" height="25" fill="#fdb863" stroke="#fdb863" stroke-width="0"/>
		<rect x="421" y="34.0" width="104" height="93" fill="#fee0b6" stroke="#fee0b6" stroke-width="0"/>
		<rect x="421" y="9" width="104" height="118" fill="none" stroke="#e08214" stroke-width="2"/>
		<line x1="421" y1="34" x2="525" y2="34" stroke="#e08214" stroke-width="1"/>
	</g>
	<text x="445" y="26.7" fill="#000000" font-family="Verdana" font-size="12">Personne</text>
	<text x="426" y="51.7" fill="#000000" font-family="Verdana" font-size="12">idPersonne</text>
	<line x1="426" y1="54" x2="493" y2="54" stroke="#000000" stroke-width="1"/>
	<text x="426" y="68.8" fill="#000000" font-family="Verdana" font-size="12">nom</text>
	<text x="426" y="85.8" fill="#000000" font-family="Verdana" font-size="12">prenom</text>
	<text x="426" y="102.8" fill="#000000" font-family="Verdana" font-size="12">date_naissance</text>
	<text x="426" y="119.8" fill="#000000" font-family="Verdana" font-size="12">sexe</text>
</g>

<!-- Entity Adresse -->
<g id="entity-Adresse">
	<g id="frame-Adresse">
		<rect x="544" y="152" width="140" height="25" fill="#fdb863" stroke="#fdb863" stroke-width="0"/>
		<rect x="544" y="177.0" width="140" height="145" fill="#fee0b6" stroke="#fee0b6" stroke-width="0"/>
		<rect x="544" y="152" width="140" height="170" fill="none" stroke="#e08214" stroke-width="2"/>
		<line x1="544" y1="177" x2="684" y2="177" stroke="#e08214" stroke-width="1"/>
	</g>
	<text x="589" y="169.7" fill="#000000" font-family="Verdana" font-size="12">Adresse</text>
	<text x="549" y="194.7" fill="#000000" font-family="Verdana" font-size="12">idAdresse</text>
	<line x1="549" y1="197" x2="608" y2="197" stroke="#000000" stroke-width="1"/>
	<text x="549" y="211.7" fill="#000000" font-family="Verdana" font-size="12">num_rue</text>
	<text x="549" y="228.7" fill="#000000" font-family="Verdana" font-size="12">nom_rue</text>
	<text x="549" y="245.8" fill="#000000" font-family="Verdana" font-size="12">complement_adresse</text>
	<text x="549" y="262.8" fill="#000000" font-family="Verdana" font-size="12">quartier</text>
	<text x="549" y="279.8" fill="#000000" font-family="Verdana" font-size="12">politique_ville</text>
	<text x="549" y="296.8" fill="#000000" font-family="Verdana" font-size="12">code_postal</text>
	<text x="549" y="313.8" fill="#000000" font-family="Verdana" font-size="12">ville</text>
</g>

<!-- Entity Données_De_Contact -->
<g id="entity-Données_De_Contact">
	<g id="frame-Données_De_Contact">
		<rect x="9" y="195" width="142" height="25" fill="#fdb863" stroke="#fdb863" stroke-width="0"/>
		<rect x="9" y="220.0" width="142" height="59" fill="#fee0b6" stroke="#fee0b6" stroke-width="0"/>
		<rect x="9" y="195" width="142" height="84" fill="none" stroke="#e08214" stroke-width="2"/>
		<line x1="9" y1="220" x2="151" y2="220" stroke="#e08214" stroke-width="1"/>
	</g>
	<text x="14" y="212.7" fill="#000000" font-family="Verdana" font-size="12">Données_De_Contact</text>
	<text x="14" y="237.8" fill="#000000" font-family="Verdana" font-size="12">idContact</text>
	<line x1="14" y1="240" x2="72" y2="240" stroke="#000000" stroke-width="1"/>
	<text x="14" y="254.8" fill="#000000" font-family="Verdana" font-size="12">num_portable</text>
	<text x="14" y="271.8" fill="#000000" font-family="Verdana" font-size="12">adresse_mail</text>
</g>

<!-- Entity Type_De_Lien -->
<g id="entity-Type_De_Lien">
	<g id="frame-Type_De_Lien">
		<rect x="185" y="34" width="98" height="25" fill="#fdb863" stroke="#fdb863" stroke-width="0"/>
		<rect x="185" y="59.0" width="98" height="43" fill="#fee0b6" stroke="#fee0b6" stroke-width="0"/>
		<rect x="185" y="34" width="98" height="68" fill="none" stroke="#e08214" stroke-width="2"/>
		<line x1="185" y1="59" x2="283" y2="59" stroke="#e08214" stroke-width="1"/>
	</g>
	<text x="190" y="51.7" fill="#000000" font-family="Verdana" font-size="12">Type_De_Lien</text>
	<text x="190" y="76.8" fill="#000000" font-family="Verdana" font-size="12">idLien</text>
	<line x1="190" y1="79" x2="227" y2="79" stroke="#000000" stroke-width="1"/>
	<text x="190" y="93.8" fill="#000000" font-family="Verdana" font-size="12">nom</text>
</g>

<!-- Entity Contrat -->
<g id="entity-Contrat">
	<g id="frame-Contrat">
		<rect x="310" y="439" width="80" height="25" fill="#fdb863" stroke="#fdb863" stroke-width="0"/>
		<rect x="310" y="464.0" width="80" height="77" fill="#fee0b6" stroke="#fee0b6" stroke-width="0"/>
		<rect x="310" y="439" width="80" height="102" fill="none" stroke="#e08214" stroke-width="2"/>
		<line x1="310" y1="464" x2="390" y2="464" stroke="#e08214" stroke-width="1"/>
	</g>
	<text x="327" y="456.7" fill="#000000" font-family="Verdana" font-size="12">Contrat</text>
	<text x="315" y="481.7" fill="#000000" font-family="Verdana" font-size="12">idContrat</text>
	<line x1="315" y1="484" x2="372" y2="484" stroke="#000000" stroke-width="1"/>
	<text x="315" y="498.8" fill="#000000" font-family="Verdana" font-size="12">date_debut</text>
	<text x="315" y="515.8" fill="#000000" font-family="Verdana" font-size="12">duree</text>
	<text x="315" y="532.8" fill="#000000" font-family="Verdana" font-size="12">date_fin</text>
</g>

<!-- Entity Epicerie -->
<g id="entity-Epicerie">
	<g id="frame-Epicerie">
		<rect x="585" y="465" width="58" height="25" fill="#fdb863" stroke="#fdb863" stroke-width="0"/>
		<rect x="585" y="490.0" width="58" height="25" fill="#fee0b6" stroke="#fee0b6" stroke-width="0"/>
		<rect x="585" y="465" width="58" height="50" fill="none" stroke="#e08214" stroke-width="2"/>
		<line x1="585" y1="490" x2="643" y2="490" stroke="#e08214" stroke-width="1"/>
	</g>
	<text x="590" y="482.7" fill="#000000" font-family="Verdana" font-size="12">Epicerie</text>
	<text x="590" y="507.8" fill="#000000" font-family="Verdana" font-size="12">date</text>
	<line x1="590" y1="510" x2="618" y2="510" stroke="#000000" stroke-width="1"/>
</g>

<!-- Entity Famille -->
<g id="entity-Famille">
	<g id="frame-Famille">
		<rect x="317" y="212" width="66" height="25" fill="#fdb863" stroke="#fdb863" stroke-width="0"/>
		<rect x="317" y="237.0" width="66" height="25" fill="#fee0b6" stroke="#fee0b6" stroke-width="0"/>
		<rect x="317" y="212" width="66" height="50" fill="none" stroke="#e08214" stroke-width="2"/>
		<line x1="317" y1="237" x2="383" y2="237" stroke="#e08214" stroke-width="1"/>
	</g>
	<text x="328" y="229.7" fill="#000000" font-family="Verdana" font-size="12">Famille</text>
	<text x="322" y="254.8" fill="#000000" font-family="Verdana" font-size="12">idFamille</text>
	<line x1="322" y1="257" x2="377" y2="257" stroke="#000000" stroke-width="1"/>
</g>

<!-- Entity Creneau_Horaire -->
<g id="entity-Creneau_Horaire">
	<g id="frame-Creneau_Horaire">
		<rect x="556" y="347" width="116" height="25" fill="#fdb863" stroke="#fdb863" stroke-width="0"/>
		<rect x="556" y="372.0" width="116" height="59" fill="#fee0b6" stroke="#fee0b6" stroke-width="0"/>
		<rect x="556" y="347" width="116" height="84" fill="none" stroke="#e08214" stroke-width="2"/>
		<line x1="556" y1="372" x2="672" y2="372" stroke="#e08214" stroke-width="1"/>
	</g>
	<text x="562" y="364.7" fill="#000000" font-family="Verdana" font-size="12">Creneau_Horaire</text>
	<text x="561" y="389.8" fill="#000000" font-family="Verdana" font-size="12">idCreneauHoraire</text>
	<line x1="561" y1="392" x2="667" y2="392" stroke="#000000" stroke-width="1"/>
	<text x="561" y="406.8" fill="#000000" font-family="Verdana" font-size="12">heure_debut</text>
	<text x="561" y="423.8" fill="#000000" font-family="Verdana" font-size="12">heure_fin</text>
</g>
</svg>